<?xml version="1.0" encoding="UTF-8" standalone="no"?>
<!-- Generated by IcoMoon.io -->

<svg
   xmlns:dc="http://purl.org/dc/elements/1.1/"
   xmlns:cc="http://creativecommons.org/ns#"
   xmlns:rdf="http://www.w3.org/1999/02/22-rdf-syntax-ns#"
   xmlns:svg="http://www.w3.org/2000/svg"
   xmlns="http://www.w3.org/2000/svg"
   xmlns:sodipodi="http://sodipodi.sourceforge.net/DTD/sodipodi-0.dtd"
   xmlns:inkscape="http://www.inkscape.org/namespaces/inkscape"
   version="1.1"
   width="16"
   height="16"
   viewBox="0 0 16 16"
   id="svg2"
   inkscape:version="0.91 r13725"
   sodipodi:docname="instagram.svg">
  <metadata
     id="metadata10">
    <rdf:RDF>
      <cc:Work
         rdf:about="">
        <dc:format>image/svg+xml</dc:format>
        <dc:type
           rdf:resource="http://purl.org/dc/dcmitype/StillImage" />
      </cc:Work>
    </rdf:RDF>
  </metadata>
  <defs
     id="defs8" />
  <sodipodi:namedview
     pagecolor="#ffffff"
     bordercolor="#666666"
     borderopacity="1"
     objecttolerance="10"
     gridtolerance="10"
     guidetolerance="10"
     inkscape:pageopacity="0"
     inkscape:pageshadow="2"
     inkscape:window-width="1280"
     inkscape:window-height="1044"
     id="namedview6"
     showgrid="false"
     inkscape:zoom="14.75"
     inkscape:cx="8"
     inkscape:cy="8"
     inkscape:window-x="1280"
     inkscape:window-y="0"
     inkscape:window-maximized="0"
     inkscape:current-layer="svg2" />
  <path
     fill="#000000"
     d="M14.5 0h-13c-0.825 0-1.5 0.675-1.5 1.5v13c0 0.825 0.675 1.5 1.5 1.5h13c0.825 0 1.5-0.675 1.5-1.5v-13c0-0.825-0.675-1.5-1.5-1.5zM11 2.5c0-0.275 0.225-0.5 0.5-0.5h2c0.275 0 0.5 0.225 0.5 0.5v2c0 0.275-0.225 0.5-0.5 0.5h-2c-0.275 0-0.5-0.225-0.5-0.5v-2zM8 5c1.656 0 3 1.344 3 3s-1.344 3-3 3c-1.656 0-3-1.344-3-3s1.344-3 3-3zM14 13.5v0c0 0.275-0.225 0.5-0.5 0.5h-11c-0.275 0-0.5-0.225-0.5-0.5v0-6.5h1.1c-0.066 0.322-0.1 0.656-0.1 1 0 2.762 2.237 5 5 5s5-2.238 5-5c0-0.344-0.034-0.678-0.1-1h1.1v6.5z"
     id="path4"
     style="fill:#c83771" />
</svg>
