<?xml version="1.0" encoding="UTF-8" standalone="no"?>
<!-- Generated by IcoMoon.io -->

<svg
   xmlns:dc="http://purl.org/dc/elements/1.1/"
   xmlns:cc="http://creativecommons.org/ns#"
   xmlns:rdf="http://www.w3.org/1999/02/22-rdf-syntax-ns#"
   xmlns:svg="http://www.w3.org/2000/svg"
   xmlns="http://www.w3.org/2000/svg"
   xmlns:sodipodi="http://sodipodi.sourceforge.net/DTD/sodipodi-0.dtd"
   xmlns:inkscape="http://www.inkscape.org/namespaces/inkscape"
   version="1.1"
   width="16"
   height="16"
   viewBox="0 0 16 16"
   id="svg2"
   inkscape:version="0.91 r13725"
   sodipodi:docname="pinterest.svg">
  <metadata
     id="metadata10">
    <rdf:RDF>
      <cc:Work
         rdf:about="">
        <dc:format>image/svg+xml</dc:format>
        <dc:type
           rdf:resource="http://purl.org/dc/dcmitype/StillImage" />
        <dc:title></dc:title>
      </cc:Work>
    </rdf:RDF>
  </metadata>
  <defs
     id="defs8" />
  <sodipodi:namedview
     pagecolor="#ffffff"
     bordercolor="#666666"
     borderopacity="1"
     objecttolerance="10"
     gridtolerance="10"
     guidetolerance="10"
     inkscape:pageopacity="0"
     inkscape:pageshadow="2"
     inkscape:window-width="1280"
     inkscape:window-height="1044"
     id="namedview6"
     showgrid="false"
     inkscape:zoom="14.75"
     inkscape:cx="-9.5932203"
     inkscape:cy="8"
     inkscape:window-x="1280"
     inkscape:window-y="0"
     inkscape:window-maximized="0"
     inkscape:current-layer="svg2" />
  <path
     d="M 7.9994229,-5e-8 C 3.5813316,-5e-8 0,3.5813316 0,7.9994229 c 0,3.3908961 2.1097886,6.2832001 5.0851908,7.4477381 -0.068095,-0.63132 -0.1338816,-1.605424 0.028854,-2.294453 0.1442689,-0.624395 0.938325,-3.9748965 0.938325,-3.9748965 0,0 -0.2377552,-0.480127 -0.2377552,-1.1864677 0,-1.1114477 0.6451706,-1.9435908 1.4461517,-1.9435908 0.6821034,0 1.0133448,0.5124432 1.0133448,1.1252975 0,0.685566 -0.4362692,1.7127607 -0.663637,2.6614731 -0.1915891,0.7975184 0.3970281,1.4461514 1.1830051,1.4461514 1.4207598,0 2.5137418,-1.5003965 2.5137418,-3.6644303 0,-1.914737 -1.3780568,-3.2535526 -3.3401141,-3.2535526 -2.2759865,0 -3.6101854,1.7058357 -3.6101854,3.4728414 0,0.6890283 0.2631465,1.4242227 0.5955421,1.8247132 0.064633,0.079636 0.076174,0.1477314 0.054245,0.2308303 -0.06117,0.252759 -0.1950517,0.797519 -0.2239055,0.908317 -0.035779,0.147731 -0.1154151,0.176585 -0.2666089,0.10849 C 3.5166991,10.442761 2.8934574,8.9816058 2.8934574,7.8101421 c 0,-2.5252832 1.8316382,-4.8405107 5.2837048,-4.8405107 2.7734258,0 4.9305348,1.975907 4.9305348,4.6200678 0,2.7561138 -1.738152,4.9778548 -4.151483,4.9778548 -0.811368,0 -1.5719537,-0.42242 -1.8327919,-0.919859 0,0 -0.4004906,1.525788 -0.4974393,1.900887 -0.1800476,0.695954 -0.6670994,1.56503 -0.9948784,2.095939 0.7501983,0.230831 1.5431003,0.356633 2.3694727,0.356633 C 12.418668,16.001154 16,12.419822 16,8.0017312 16,3.5801775 12.418668,-0.00115415 8.0005771,-0.00115415 Z"
     id="path4"
     style="fill:#aa2529;fill-opacity:1"
     inkscape:connector-curvature="0" />
</svg>
