<?xml version="1.0" encoding="UTF-8" standalone="no"?>
<!-- Created with Inkscape (http://www.inkscape.org/) -->

<svg
   xmlns:dc="http://purl.org/dc/elements/1.1/"
   xmlns:cc="http://creativecommons.org/ns#"
   xmlns:rdf="http://www.w3.org/1999/02/22-rdf-syntax-ns#"
   xmlns:svg="http://www.w3.org/2000/svg"
   xmlns="http://www.w3.org/2000/svg"
   xmlns:sodipodi="http://sodipodi.sourceforge.net/DTD/sodipodi-0.dtd"
   xmlns:inkscape="http://www.inkscape.org/namespaces/inkscape"
   id="svg2"
   version="1.1"
   inkscape:version="0.91 r13725"
   xml:space="preserve"
   width="15.999999"
   height="16.000134"
   viewBox="0 0 15.999999 16.000134"
   sodipodi:docname="sketchfab.svg"><metadata
     id="metadata8"><rdf:RDF><cc:Work
         rdf:about=""><dc:format>image/svg+xml</dc:format><dc:type
           rdf:resource="http://purl.org/dc/dcmitype/StillImage" /><dc:title></dc:title></cc:Work></rdf:RDF></metadata><defs
     id="defs6"><clipPath
       clipPathUnits="userSpaceOnUse"
       id="clipPath16"><path
         d="M 0,200 200,200 200,0 0,0 0,200 Z"
         id="path18"
         inkscape:connector-curvature="0" /></clipPath></defs><sodipodi:namedview
     pagecolor="#ffffff"
     bordercolor="#666666"
     borderopacity="1"
     objecttolerance="10"
     gridtolerance="10"
     guidetolerance="10"
     inkscape:pageopacity="0"
     inkscape:pageshadow="2"
     inkscape:window-width="1280"
     inkscape:window-height="1044"
     id="namedview4"
     showgrid="false"
     fit-margin-top="0"
     fit-margin-left="0"
     fit-margin-right="0"
     fit-margin-bottom="0"
     showguides="false"
     inkscape:zoom="36.312502"
     inkscape:cx="7.9999995"
     inkscape:cy="8.0000668"
     inkscape:window-x="1280"
     inkscape:window-y="0"
     inkscape:window-maximized="0"
     inkscape:current-layer="g14" /><g
     id="g10"
     inkscape:groupmode="layer"
     inkscape:label="sketchfab logo icon"
     transform="matrix(1.25,0,0,-1.25,-117,133.00019)"><g
       id="g12"
       transform="matrix(0.10776406,0,0,0.10776406,89.223594,89.223683)"><g
         id="g14"
         clip-path="url(#clipPath16)"><path
           style="fill:#1caad9;fill-opacity:1;fill-rule:nonzero;stroke:none"
           d="M 8 0 C 3.5815388 0 5.9211895e-16 3.5820777 0 8 C 0 12.418596 3.5815388 16 8 16 C 12.418461 16 16 12.418596 16 8 C 16 3.5820777 12.418461 0 8 0 z M 8 3.1445312 L 12.064453 5.6347656 L 12.064453 10.615234 L 8 13.103516 L 3.9355469 10.615234 L 3.9355469 5.6347656 L 8 3.1445312 z "
           transform="matrix(7.4236253,0,0,-7.4236253,40.610998,159.38959)"
           id="path22" /><g
           id="g28"
           transform="translate(100,96.0986)"><path
             d="M 0,0 0,-42.164 M 37.057,22.699 0,0 -37.057,22.699"
             style="fill:none;stroke:#1caad9;stroke-width:7;stroke-linecap:butt;stroke-linejoin:miter;stroke-miterlimit:10;stroke-dasharray:none;stroke-opacity:1"
             id="path30"
             inkscape:connector-curvature="0" /></g></g></g></g></svg>